<svg xmlns="http://www.w3.org/2000/svg" direction="ltr" width="2048" height="2048" viewBox="-18249.711936680025 24519.22254382104 2048 2048" stroke-linecap="round" stroke-linejoin="round" style="background-color: transparent;" data-color-mode="light" class="tl-container tl-theme__force-sRGB tl-theme__light"><defs/><g transform="matrix(1, 0, 0, 1, -18249.7119, 24519.2225)" opacity="1"><g data-lovart-layer-name="极简化插画_SVG"><g transform="scale(1.4143646408839778, 1.4143646408839778)"><g>
<g xmlns="http://www.w3.org/2000/svg" stroke-width="2.00" fill="none" stroke-linecap="butt">
<path stroke="#b3c4a0" d="M 39.86 357.21   L 39.92 1406.84   A 0.85 0.84 -90.0 0 0 40.76 1407.69   L 74.71 1407.69   A 0.91 0.91 0.0 0 0 75.56 1407.10   L 120.18 1291.57"/>
<path stroke="#e5e9ec" d="M 120.18 1291.57   Q 121.75 1287.15 123.78 1283.59   A 0.67 0.14 -78.0 0 0 123.82 1283.50   L 170.84 1161.93   A 1.32 1.32 0.0 0 0 170.53 1160.50   Q 157.82 1148.01 145.02 1135.98   Q 139.76 1131.03 132.74 1123.51   Q 128.88 1119.37 123.38 1114.91"/>
<path stroke="#b3c4a0" d="M 123.38 1114.91   L 109.67 1101.39   A 1.66 1.66 0.0 0 1 109.42 1099.35   L 218.27 919.31   A 5.44 4.76 -11.4 0 1 218.82 918.59   L 326.07 804.33"/>
<path stroke="#94b2d4" d="M 326.07 804.33   Q 326.71 803.64 327.28 803.03   Q 341.36 787.99 355.51 773.00   Q 361.91 766.22 365.83 763.29"/>
<path stroke="#e5e9ec" d="M 365.83 763.29   L 495.03 721.60   A 0.43 0.43 0.0 0 0 495.10 720.81   Q 494.98 720.74 494.25 720.82   Q 487.05 721.58 388.40 728.45   Q 386.33 728.59 377.60 729.04   Q 372.11 729.32 366.84 729.91"/>
<path stroke="#94b2d4" d="M 366.84 729.91   Q 343.02 695.40 318.67 660.72   C 317.90 659.62 315.76 657.29 315.65 655.64   Q 314.58 639.30 310.81 580.51   A 3.88 3.87 -29.8 0 1 311.48 578.06   L 372.66 488.28   A 2.36 2.35 9.9 0 1 374.02 487.33   L 486.27 458.79   A 1.83 1.82 51.9 0 1 487.57 458.95   L 568.19 502.28   A 2.17 2.14 48.1 0 0 569.99 502.39   L 663.28 466.93   A 0.58 0.58 0.0 0 1 664.01 467.23   L 677.73 497.52   A 1.88 1.85 42.5 0 1 677.80 498.90   L 661.88 545.32   A 2.84 2.84 0.0 0 1 660.65 546.83   L 594.68 585.92"/>
<path stroke="#e7a29e" d="M 594.68 585.92   L 528.30 625.42   A 1.88 1.86 69.3 0 0 527.42 627.40   L 537.40 677.38   A 1.11 1.06 23.8 0 0 537.59 677.84   Q 538.48 679.07 540.67 680.32   Q 549.24 685.18 568.06 697.72   Q 569.36 698.59 570.99 698.88   A 2.09 2.02 41.0 0 0 571.95 698.83   L 636.00 679.31"/>
<path stroke="#94b2d4" d="M 636.00 679.31   Q 637.40 679.01 642.71 677.42   Q 688.24 663.74 740.22 648.05   C 750.93 644.82 758.96 640.54 770.80 634.77   Q 831.13 605.35 879.46 581.46   Q 880.77 580.81 882.36 579.36   Q 912.31 552.08 959.47 509.47   Q 962.23 506.98 964.09 506.15   Q 995.79 492.11 1024.77 479.99   Q 1039.16 473.96 1086.79 453.49   C 1105.32 445.54 1124.12 437.92 1142.69 429.65   Q 1145.82 428.26 1152.14 425.75   Q 1157.06 423.80 1161.59 421.85"/>
<path stroke="#f6cfd1" d="M 1161.59 421.85   L 1188.61 483.14"/>
<path stroke="#94b2d4" d="M 1188.61 483.14   C 1176.44 491.86 1162.66 502.78 1152.90 510.05   Q 1079.97 564.30 1075.99 567.22   C 1056.33 581.60 1039.85 594.38 1017.54 610.77   Q 1008.29 617.56 986.33 634.33   C 982.33 637.38 977.24 641.07 971.77 644.35   Q 933.05 667.65 895.36 689.92   Q 874.97 701.97 855.57 713.10"/>
<path stroke="#b3c4a0" d="M 855.57 713.10   L 783.91 755.28"/>
<path stroke="#94b2d4" d="M 783.91 755.28   L 744.15 778.64   A 1.94 1.93 74.9 0 0 743.20 780.31   L 743.20 842.87   A 1.04 1.03 -17.2 0 1 742.74 843.73   L 652.82 905.16"/>
<path stroke="#b3c4a0" d="M 652.82 905.16   Q 650.72 906.39 650.30 908.55   Q 646.82 926.65 643.07 942.79   Q 637.01 968.90 635.59 976.95   Q 635.03 980.16 629.21 1008.14   Q 627.09 1018.32 622.39 1039.24   Q 617.31 1061.81 612.99 1084.53"/>
<path stroke="#e9ca95" d="M 612.99 1084.53   C 607.61 1106.51 602.04 1135.41 598.75 1150.81   Q 589.49 1194.21 580.28 1237.77"/>
<path stroke="#b3c4a0" d="M 580.28 1237.77   L 544.02 1407.25"/>
<path stroke="#e5e9ec" d="M 544.02 1407.25   L 211.97 1407.24   A 0.32 0.31 0.0 0 0 211.65 1407.55   L 211.65 1407.57   A 0.32 0.31 -0.0 0 0 211.97 1407.88   L 545.18 1407.83"/>
<path stroke="#b3c4a0" d="M 545.18 1407.83   L 712.86 1407.73"/>
<path stroke="#e9ca95" d="M 712.86 1407.73   L 790.46 1407.72"/>
<path stroke="#b3c4a0" d="M 790.46 1407.72   L 1407.39 1407.65   A 0.51 0.51 0.0 0 0 1407.90 1407.14   L 1407.90 1321.46"/>
<path stroke="#e9ca95" d="M 1407.90 1321.46   L 1408.03 874.79"/>
<path stroke="#94b2d4" d="M 1408.03 874.79   L 1407.92 41.84   A 0.60 0.59 -90.0 0 0 1407.33 41.24   L 40.46 41.25   A 0.51 0.50 -0.0 0 0 39.95 41.75   L 39.86 357.21"/>
<path stroke="#7e7c6a" d="M 1408.03 874.79   C 1406.94 874.63 1406.34 873.98 1405.28 873.81   Q 1390.45 871.46 1348.89 864.78   A 1.06 1.05 -74.8 0 0 1347.75 865.44   L 1314.83 950.57   A 0.61 0.61 0.0 0 1 1313.79 950.74   L 1270.20 897.86   A 0.84 0.82 -35.0 0 0 1269.13 897.68   Q 1247.30 911.13 1224.62 923.02   A 3.84 3.83 -5.0 0 0 1222.74 925.25   L 1201.16 991.56   A 0.63 0.63 0.0 0 1 1199.96 991.54   Q 1189.41 955.97 1184.69 941.26   Q 1180.37 927.80 1177.88 918.38   C 1174.36 905.05 1169.84 892.60 1166.29 879.24   Q 1166.22 878.99 1161.54 862.98   A 0.42 0.41 -49.9 0 0 1160.73 863.05   L 1138.75 1044.46"/>
<path stroke="#487675" d="M 1138.75 1044.46   Q 1138.05 1044.46 1137.75 1044.35   A 0.62 0.61 8.3 0 1 1137.37 1043.85   L 1108.15 801.25   A 0.45 0.45 0.0 0 0 1107.42 800.96   L 1090.87 814.60   A 0.43 0.43 0.0 0 1 1090.17 814.35   L 1062.96 675.68   A 0.40 0.40 0.0 0 0 1062.32 675.45   Q 1061.36 676.24 1060.64 677.14   Q 1051.48 688.52 1044.28 698.62   C 1042.62 700.96 1041.73 702.92 1041.38 705.63   Q 1039.20 722.68 1037.09 740.51   C 1018.96 893.56 1007.37 990.87 1002.34 1035.95   A 0.46 0.46 0.0 0 1 1001.60 1036.27   Q 984.46 1023.35 972.28 1013.95   C 969.99 1012.18 968.54 1010.45 967.53 1007.96   Q 951.80 969.26 938.40 935.76   A 0.55 0.54 42.6 0 0 937.37 935.80   Q 931.49 955.24 921.21 988.09   C 920.46 990.49 919.49 994.94 917.68 996.95   Q 905.85 1010.10 897.41 1019.55   A 0.57 0.57 0.0 0 1 896.43 1019.25   C 895.53 1012.57 894.83 1004.89 894.17 999.92   Q 891.70 981.36 866.47 790.51   Q 865.17 780.63 862.57 758.49   Q 859.91 735.85 855.57 713.10"/>
<path stroke="#8b82a7" d="M 1188.61 483.14   L 1213.56 485.83   A 2.21 2.21 0.0 0 0 1215.01 485.47   L 1236.15 471.30   A 1.39 1.37 44.7 0 1 1237.68 471.30   L 1261.59 487.12   A 0.37 0.37 0.0 0 0 1261.99 487.12   L 1301.25 462.58   A 4.52 4.51 83.1 0 0 1303.16 460.14   L 1314.95 423.90   A 1.37 1.36 -59.1 0 0 1314.60 422.50   L 1292.52 401.24   A 0.88 0.88 0.0 0 1 1292.74 399.82   C 1301.66 395.32 1314.07 390.79 1320.76 388.61   Q 1326.75 386.65 1334.19 382.95   Q 1341.06 379.53 1351.82 375.85   A 3.15 3.15 0.0 0 0 1353.78 373.89   L 1361.36 351.78   A 0.31 0.31 0.0 0 0 1361.00 351.38   L 1266.85 374.15   A 2.17 2.15 60.0 0 1 1264.84 373.60   L 1252.37 361.60   A 1.03 1.02 -39.8 0 0 1251.09 361.49   L 1161.59 421.85"/>
<path stroke="#7c5474" d="M 636.00 679.31   Q 634.84 653.30 633.25 627.03   Q 633.13 625.05 631.54 623.46   Q 616.38 608.30 594.68 585.92"/>
<path stroke="#7a9cc2" d="M 366.84 729.91   L 365.83 763.29"/>
<path stroke="#487675" d="M 326.07 804.33   Q 299.23 779.68 273.19 754.55   Q 271.20 752.63 268.05 753.78   Q 232.33 766.86 197.28 780.54   A 1.01 1.00 75.3 0 1 195.92 779.74   C 190.63 742.13 186.56 710.73 180.70 668.94   Q 169.95 592.15 163.88 544.95   Q 163.54 542.31 161.84 540.18   Q 141.38 514.51 137.62 509.88   Q 136.91 509.01 136.11 508.40   A 1.56 1.56 0.0 0 0 134.07 508.51   Q 127.22 515.18 111.79 530.53   Q 109.78 532.52 109.60 534.38   Q 105.48 576.39 102.02 619.03   A 8.17 8.15 64.5 0 1 100.65 622.91   Q 80.12 653.22 76.97 657.98   Q 76.62 658.51 76.35 658.63   A 0.30 0.30 0.0 0 1 75.93 658.36   Q 73.81 547.79 72.57 471.25   Q 72.46 464.36 70.36 457.68   Q 63.50 435.87 56.54 409.82   C 53.06 396.84 49.28 384.96 46.54 374.20   Q 45.19 368.90 43.02 363.31   C 42.50 361.99 42.69 360.60 41.65 359.44   C 40.86 358.55 40.96 357.48 40.52 356.60   A 0.36 0.35 -59.8 0 0 39.85 356.78   L 39.86 357.21"/>
<path stroke="#98ae8e" d="M 123.38 1114.91   Q 122.17 1167.25 121.25 1219.25   Q 120.80 1244.63 119.94 1270.00   Q 119.58 1280.56 120.18 1291.57"/>
<path stroke="#9d8e36" d="M 1138.75 1044.46   Q 1129.55 1117.02 1120.77 1189.62   Q 1120.66 1190.49 1120.32 1192.39   Q 1119.85 1194.95 1120.55 1196.19   Q 1126.68 1207.01 1127.99 1209.01   C 1136.73 1222.41 1143.90 1235.22 1153.58 1250.90   Q 1154.67 1252.66 1171.22 1280.38   Q 1182.16 1298.71 1191.64 1314.02   Q 1193.33 1316.75 1193.39 1320.16   Q 1193.52 1326.80 1193.74 1332.91   A 0.66 0.66 0.0 0 0 1194.44 1333.55   L 1218.27 1331.87   A 0.84 0.83 -85.3 0 0 1219.03 1331.22   L 1242.04 1226.84   A 0.57 0.57 0.0 0 1 1242.73 1226.40   L 1323.61 1244.23   A 2.22 2.21 88.0 0 1 1325.26 1245.77   L 1348.05 1322.77   A 0.87 0.87 0.0 0 0 1348.91 1323.39   L 1407.90 1321.46"/>
<path stroke="#9d8e36" d="M 790.46 1407.72   Q 790.76 1407.15 791.25 1406.75   Q 826.54 1377.66 868.48 1342.74   Q 870.54 1341.02 871.15 1338.64   Q 886.27 1279.10 901.61 1220.33   A 1.91 1.87 40.7 0 0 901.50 1219.04   L 833.33 1068.60   A 0.99 0.98 73.2 0 0 832.28 1068.03   L 740.89 1082.21   A 4.78 4.78 0.0 0 1 737.68 1081.58   L 676.83 1044.79   A 1.30 1.30 0.0 0 0 675.46 1044.80   Q 657.43 1056.02 639.02 1069.00   Q 634.62 1072.11 629.55 1074.61   Q 624.59 1077.06 621.59 1079.22   Q 615.77 1083.41 614.03 1084.54   Q 613.85 1084.66 613.62 1085.18   A 0.30 0.30 0.0 0 1 613.05 1085.09   L 612.99 1084.53"/>
<path stroke="#487675" d="M 652.82 905.16   Q 653.51 907.46 654.93 908.32   Q 662.22 912.71 670.61 918.39   Q 693.40 933.81 704.49 941.26   A 1.25 1.25 0.0 0 0 706.12 941.06   Q 739.57 904.07 768.45 871.43   C 770.07 869.60 770.86 868.11 771.14 865.82   Q 779.44 797.94 783.68 763.17   Q 783.70 763.02 784.17 760.41   Q 784.65 757.70 783.91 755.28"/>
<path stroke="#9d8e36" d="M 712.86 1407.73   Q 711.96 1405.71 711.74 1404.78   Q 693.45 1328.62 684.28 1289.32   C 682.01 1279.60 679.28 1269.42 677.13 1259.00   A 1.81 1.80 89.9 0 0 675.73 1257.59   L 580.28 1237.77"/>
<path stroke="#98ae8e" d="M 545.18 1407.83   Q 545.40 1407.43 544.02 1407.25"/>
<path stroke="#e5e9ec" d="M 189.1900 1407.5256   A 0.28 0.28 0.0 0 0 188.9095 1407.2461   L 150.0895 1407.3139   A 0.28 0.28 0.0 0 0 149.8100 1407.5944   L 149.8100 1407.6144   A 0.28 0.28 0.0 0 0 150.0905 1407.8939   L 188.9105 1407.8261   A 0.28 0.28 0.0 0 0 189.1900 1407.5456   L 189.1900 1407.5256"/>
</g>
<path xmlns="http://www.w3.org/2000/svg" fill="#fffffe" d="M 1448.00 0.00   L 1448.00 1448.00   L 0.00 1448.00   L 0.00 0.00   L 1448.00 0.00   Z   M 39.86 357.21   L 39.92 1406.84   A 0.85 0.84 -90.0 0 0 40.76 1407.69   L 74.71 1407.69   A 0.91 0.91 0.0 0 0 75.56 1407.10   L 120.18 1291.57   Q 121.75 1287.15 123.78 1283.59   A 0.67 0.14 -78.0 0 0 123.82 1283.50   L 170.84 1161.93   A 1.32 1.32 0.0 0 0 170.53 1160.50   Q 157.82 1148.01 145.02 1135.98   Q 139.76 1131.03 132.74 1123.51   Q 128.88 1119.37 123.38 1114.91   L 109.67 1101.39   A 1.66 1.66 0.0 0 1 109.42 1099.35   L 218.27 919.31   A 5.44 4.76 -11.4 0 1 218.82 918.59   L 326.07 804.33   Q 326.71 803.64 327.28 803.03   Q 341.36 787.99 355.51 773.00   Q 361.91 766.22 365.83 763.29   L 495.03 721.60   A 0.43 0.43 0.0 0 0 495.10 720.81   Q 494.98 720.74 494.25 720.82   Q 487.05 721.58 388.40 728.45   Q 386.33 728.59 377.60 729.04   Q 372.11 729.32 366.84 729.91   Q 343.02 695.40 318.67 660.72   C 317.90 659.62 315.76 657.29 315.65 655.64   Q 314.58 639.30 310.81 580.51   A 3.88 3.87 -29.8 0 1 311.48 578.06   L 372.66 488.28   A 2.36 2.35 9.9 0 1 374.02 487.33   L 486.27 458.79   A 1.83 1.82 51.9 0 1 487.57 458.95   L 568.19 502.28   A 2.17 2.14 48.1 0 0 569.99 502.39   L 663.28 466.93   A 0.58 0.58 0.0 0 1 664.01 467.23   L 677.73 497.52   A 1.88 1.85 42.5 0 1 677.80 498.90   L 661.88 545.32   A 2.84 2.84 0.0 0 1 660.65 546.83   L 594.68 585.92   L 528.30 625.42   A 1.88 1.86 69.3 0 0 527.42 627.40   L 537.40 677.38   A 1.11 1.06 23.8 0 0 537.59 677.84   Q 538.48 679.07 540.67 680.32   Q 549.24 685.18 568.06 697.72   Q 569.36 698.59 570.99 698.88   A 2.09 2.02 41.0 0 0 571.95 698.83   L 636.00 679.31   Q 637.40 679.01 642.71 677.42   Q 688.24 663.74 740.22 648.05   C 750.93 644.82 758.96 640.54 770.80 634.77   Q 831.13 605.35 879.46 581.46   Q 880.77 580.81 882.36 579.36   Q 912.31 552.08 959.47 509.47   Q 962.23 506.98 964.09 506.15   Q 995.79 492.11 1024.77 479.99   Q 1039.16 473.96 1086.79 453.49   C 1105.32 445.54 1124.12 437.92 1142.69 429.65   Q 1145.82 428.26 1152.14 425.75   Q 1157.06 423.80 1161.59 421.85   L 1188.61 483.14   C 1176.44 491.86 1162.66 502.78 1152.90 510.05   Q 1079.97 564.30 1075.99 567.22   C 1056.33 581.60 1039.85 594.38 1017.54 610.77   Q 1008.29 617.56 986.33 634.33   C 982.33 637.38 977.24 641.07 971.77 644.35   Q 933.05 667.65 895.36 689.92   Q 874.97 701.97 855.57 713.10   L 783.91 755.28   L 744.15 778.64   A 1.94 1.93 74.9 0 0 743.20 780.31   L 743.20 842.87   A 1.04 1.03 -17.2 0 1 742.74 843.73   L 652.82 905.16   Q 650.72 906.39 650.30 908.55   Q 646.82 926.65 643.07 942.79   Q 637.01 968.90 635.59 976.95   Q 635.03 980.16 629.21 1008.14   Q 627.09 1018.32 622.39 1039.24   Q 617.31 1061.81 612.99 1084.53   C 607.61 1106.51 602.04 1135.41 598.75 1150.81   Q 589.49 1194.21 580.28 1237.77   L 544.02 1407.25   L 211.97 1407.24   A 0.32 0.31 0.0 0 0 211.65 1407.55   L 211.65 1407.57   A 0.32 0.31 -0.0 0 0 211.97 1407.88   L 545.18 1407.83   L 712.86 1407.73   L 790.46 1407.72   L 1407.39 1407.65   A 0.51 0.51 0.0 0 0 1407.90 1407.14   L 1407.90 1321.46   L 1408.03 874.79   L 1407.92 41.84   A 0.60 0.59 -90.0 0 0 1407.33 41.24   L 40.46 41.25   A 0.51 0.50 -0.0 0 0 39.95 41.75   L 39.86 357.21   Z   M 189.1900 1407.5256   A 0.28 0.28 0.0 0 0 188.9095 1407.2461   L 150.0895 1407.3139   A 0.28 0.28 0.0 0 0 149.8100 1407.5944   L 149.8100 1407.6144   A 0.28 0.28 0.0 0 0 150.0905 1407.8939   L 188.9105 1407.8261   A 0.28 0.28 0.0 0 0 189.1900 1407.5456   L 189.1900 1407.5256   Z"/>
<path xmlns="http://www.w3.org/2000/svg" fill="#2964a9" d="M 1408.03 874.79   C 1406.94 874.63 1406.34 873.98 1405.28 873.81   Q 1390.45 871.46 1348.89 864.78   A 1.06 1.05 -74.8 0 0 1347.75 865.44   L 1314.83 950.57   A 0.61 0.61 0.0 0 1 1313.79 950.74   L 1270.20 897.86   A 0.84 0.82 -35.0 0 0 1269.13 897.68   Q 1247.30 911.13 1224.62 923.02   A 3.84 3.83 -5.0 0 0 1222.74 925.25   L 1201.16 991.56   A 0.63 0.63 0.0 0 1 1199.96 991.54   Q 1189.41 955.97 1184.69 941.26   Q 1180.37 927.80 1177.88 918.38   C 1174.36 905.05 1169.84 892.60 1166.29 879.24   Q 1166.22 878.99 1161.54 862.98   A 0.42 0.41 -49.9 0 0 1160.73 863.05   L 1138.75 1044.46   Q 1138.05 1044.46 1137.75 1044.35   A 0.62 0.61 8.3 0 1 1137.37 1043.85   L 1108.15 801.25   A 0.45 0.45 0.0 0 0 1107.42 800.96   L 1090.87 814.60   A 0.43 0.43 0.0 0 1 1090.17 814.35   L 1062.96 675.68   A 0.40 0.40 0.0 0 0 1062.32 675.45   Q 1061.36 676.24 1060.64 677.14   Q 1051.48 688.52 1044.28 698.62   C 1042.62 700.96 1041.73 702.92 1041.38 705.63   Q 1039.20 722.68 1037.09 740.51   C 1018.96 893.56 1007.37 990.87 1002.34 1035.95   A 0.46 0.46 0.0 0 1 1001.60 1036.27   Q 984.46 1023.35 972.28 1013.95   C 969.99 1012.18 968.54 1010.45 967.53 1007.96   Q 951.80 969.26 938.40 935.76   A 0.55 0.54 42.6 0 0 937.37 935.80   Q 931.49 955.24 921.21 988.09   C 920.46 990.49 919.49 994.94 917.68 996.95   Q 905.85 1010.10 897.41 1019.55   A 0.57 0.57 0.0 0 1 896.43 1019.25   C 895.53 1012.57 894.83 1004.89 894.17 999.92   Q 891.70 981.36 866.47 790.51   Q 865.17 780.63 862.57 758.49   Q 859.91 735.85 855.57 713.10   Q 874.97 701.97 895.36 689.92   Q 933.05 667.65 971.77 644.35   C 977.24 641.07 982.33 637.38 986.33 634.33   Q 1008.29 617.56 1017.54 610.77   C 1039.85 594.38 1056.33 581.60 1075.99 567.22   Q 1079.97 564.30 1152.90 510.05   C 1162.66 502.78 1176.44 491.86 1188.61 483.14   L 1213.56 485.83   A 2.21 2.21 0.0 0 0 1215.01 485.47   L 1236.15 471.30   A 1.39 1.37 44.7 0 1 1237.68 471.30   L 1261.59 487.12   A 0.37 0.37 0.0 0 0 1261.99 487.12   L 1301.25 462.58   A 4.52 4.51 83.1 0 0 1303.16 460.14   L 1314.95 423.90   A 1.37 1.36 -59.1 0 0 1314.60 422.50   L 1292.52 401.24   A 0.88 0.88 0.0 0 1 1292.74 399.82   C 1301.66 395.32 1314.07 390.79 1320.76 388.61   Q 1326.75 386.65 1334.19 382.95   Q 1341.06 379.53 1351.82 375.85   A 3.15 3.15 0.0 0 0 1353.78 373.89   L 1361.36 351.78   A 0.31 0.31 0.0 0 0 1361.00 351.38   L 1266.85 374.15   A 2.17 2.15 60.0 0 1 1264.84 373.60   L 1252.37 361.60   A 1.03 1.02 -39.8 0 0 1251.09 361.49   L 1161.59 421.85   Q 1157.06 423.80 1152.14 425.75   Q 1145.82 428.26 1142.69 429.65   C 1124.12 437.92 1105.32 445.54 1086.79 453.49   Q 1039.16 473.96 1024.77 479.99   Q 995.79 492.11 964.09 506.15   Q 962.23 506.98 959.47 509.47   Q 912.31 552.08 882.36 579.36   Q 880.77 580.81 879.46 581.46   Q 831.13 605.35 770.80 634.77   C 758.96 640.54 750.93 644.82 740.22 648.05   Q 688.24 663.74 642.71 677.42   Q 637.40 679.01 636.00 679.31   Q 634.84 653.30 633.25 627.03   Q 633.13 625.05 631.54 623.46   Q 616.38 608.30 594.68 585.92   L 660.65 546.83   A 2.84 2.84 0.0 0 0 661.88 545.32   L 677.80 498.90   A 1.88 1.85 42.5 0 0 677.73 497.52   L 664.01 467.23   A 0.58 0.58 0.0 0 0 663.28 466.93   L 569.99 502.39   A 2.17 2.14 48.1 0 1 568.19 502.28   L 487.57 458.95   A 1.83 1.82 51.9 0 0 486.27 458.79   L 374.02 487.33   A 2.36 2.35 9.9 0 0 372.66 488.28   L 311.48 578.06   A 3.88 3.87 -29.8 0 0 310.81 580.51   Q 314.58 639.30 315.65 655.64   C 315.76 657.29 317.90 659.62 318.67 660.72   Q 343.02 695.40 366.84 729.91   L 365.83 763.29   Q 361.91 766.22 355.51 773.00   Q 341.36 787.99 327.28 803.03   Q 326.71 803.64 326.07 804.33   Q 299.23 779.68 273.19 754.55   Q 271.20 752.63 268.05 753.78   Q 232.33 766.86 197.28 780.54   A 1.01 1.00 75.3 0 1 195.92 779.74   C 190.63 742.13 186.56 710.73 180.70 668.94   Q 169.95 592.15 163.88 544.95   Q 163.54 542.31 161.84 540.18   Q 141.38 514.51 137.62 509.88   Q 136.91 509.01 136.11 508.40   A 1.56 1.56 0.0 0 0 134.07 508.51   Q 127.22 515.18 111.79 530.53   Q 109.78 532.52 109.60 534.38   Q 105.48 576.39 102.02 619.03   A 8.17 8.15 64.5 0 1 100.65 622.91   Q 80.12 653.22 76.97 657.98   Q 76.62 658.51 76.35 658.63   A 0.30 0.30 0.0 0 1 75.93 658.36   Q 73.81 547.79 72.57 471.25   Q 72.46 464.36 70.36 457.68   Q 63.50 435.87 56.54 409.82   C 53.06 396.84 49.28 384.96 46.54 374.20   Q 45.19 368.90 43.02 363.31   C 42.50 361.99 42.69 360.60 41.65 359.44   C 40.86 358.55 40.96 357.48 40.52 356.60   A 0.36 0.35 -59.8 0 0 39.85 356.78   L 39.86 357.21   L 39.95 41.75   A 0.51 0.50 -0.0 0 1 40.46 41.25   L 1407.33 41.24   A 0.60 0.59 -90.0 0 1 1407.92 41.84   L 1408.03 874.79   Z"/>
<path xmlns="http://www.w3.org/2000/svg" fill="#ed9fa4" d="M 1188.61 483.14   L 1161.59 421.85   L 1251.09 361.49   A 1.03 1.02 -39.8 0 1 1252.37 361.60   L 1264.84 373.60   A 2.17 2.15 60.0 0 0 1266.85 374.15   L 1361.00 351.38   A 0.31 0.31 0.0 0 1 1361.36 351.78   L 1353.78 373.89   A 3.15 3.15 0.0 0 1 1351.82 375.85   Q 1341.06 379.53 1334.19 382.95   Q 1326.75 386.65 1320.76 388.61   C 1314.07 390.79 1301.66 395.32 1292.74 399.82   A 0.88 0.88 0.0 0 0 1292.52 401.24   L 1314.60 422.50   A 1.37 1.36 -59.1 0 1 1314.95 423.90   L 1303.16 460.14   A 4.52 4.51 83.1 0 1 1301.25 462.58   L 1261.99 487.12   A 0.37 0.37 0.0 0 1 1261.59 487.12   L 1237.68 471.30   A 1.39 1.37 44.7 0 0 1236.15 471.30   L 1215.01 485.47   A 2.21 2.21 0.0 0 1 1213.56 485.83   L 1188.61 483.14   Z"/>
<path xmlns="http://www.w3.org/2000/svg" fill="#668841" d="M 326.07 804.33   L 218.82 918.59   A 5.44 4.76 -11.4 0 0 218.27 919.31   L 109.42 1099.35   A 1.66 1.66 0.0 0 0 109.67 1101.39   L 123.38 1114.91   Q 122.17 1167.25 121.25 1219.25   Q 120.80 1244.63 119.94 1270.00   Q 119.58 1280.56 120.18 1291.57   L 75.56 1407.10   A 0.91 0.91 0.0 0 1 74.71 1407.69   L 40.76 1407.69   A 0.85 0.84 -90.0 0 1 39.92 1406.84   L 39.86 357.21   L 39.85 356.78   A 0.36 0.35 -59.8 0 1 40.52 356.60   C 40.96 357.48 40.86 358.55 41.65 359.44   C 42.69 360.60 42.50 361.99 43.02 363.31   Q 45.19 368.90 46.54 374.20   C 49.28 384.96 53.06 396.84 56.54 409.82   Q 63.50 435.87 70.36 457.68   Q 72.46 464.36 72.57 471.25   Q 73.81 547.79 75.93 658.36   A 0.30 0.30 0.0 0 0 76.35 658.63   Q 76.62 658.51 76.97 657.98   Q 80.12 653.22 100.65 622.91   A 8.17 8.15 64.5 0 0 102.02 619.03   Q 105.48 576.39 109.60 534.38   Q 109.78 532.52 111.79 530.53   Q 127.22 515.18 134.07 508.51   A 1.56 1.56 0.0 0 1 136.11 508.40   Q 136.91 509.01 137.62 509.88   Q 141.38 514.51 161.84 540.18   Q 163.54 542.31 163.88 544.95   Q 169.95 592.15 180.70 668.94   C 186.56 710.73 190.63 742.13 195.92 779.74   A 1.01 1.00 75.3 0 0 197.28 780.54   Q 232.33 766.86 268.05 753.78   Q 271.20 752.63 273.19 754.55   Q 299.23 779.68 326.07 804.33   Z"/>
<path xmlns="http://www.w3.org/2000/svg" fill="#cf443e" d="M 594.68 585.92   Q 616.38 608.30 631.54 623.46   Q 633.13 625.05 633.25 627.03   Q 634.84 653.30 636.00 679.31   L 571.95 698.83   A 2.09 2.02 41.0 0 1 570.99 698.88   Q 569.36 698.59 568.06 697.72   Q 549.24 685.18 540.67 680.32   Q 538.48 679.07 537.59 677.84   A 1.11 1.06 23.8 0 1 537.40 677.38   L 527.42 627.40   A 1.88 1.86 69.3 0 1 528.30 625.42   L 594.68 585.92   Z"/>
<path xmlns="http://www.w3.org/2000/svg" fill="#668841" d="M 1138.75 1044.46   Q 1129.55 1117.02 1120.77 1189.62   Q 1120.66 1190.49 1120.32 1192.39   Q 1119.85 1194.95 1120.55 1196.19   Q 1126.68 1207.01 1127.99 1209.01   C 1136.73 1222.41 1143.90 1235.22 1153.58 1250.90   Q 1154.67 1252.66 1171.22 1280.38   Q 1182.16 1298.71 1191.64 1314.02   Q 1193.33 1316.75 1193.39 1320.16   Q 1193.52 1326.80 1193.74 1332.91   A 0.66 0.66 0.0 0 0 1194.44 1333.55   L 1218.27 1331.87   A 0.84 0.83 -85.3 0 0 1219.03 1331.22   L 1242.04 1226.84   A 0.57 0.57 0.0 0 1 1242.73 1226.40   L 1323.61 1244.23   A 2.22 2.21 88.0 0 1 1325.26 1245.77   L 1348.05 1322.77   A 0.87 0.87 0.0 0 0 1348.91 1323.39   L 1407.90 1321.46   L 1407.90 1407.14   A 0.51 0.51 0.0 0 1 1407.39 1407.65   L 790.46 1407.72   Q 790.76 1407.15 791.25 1406.75   Q 826.54 1377.66 868.48 1342.74   Q 870.54 1341.02 871.15 1338.64   Q 886.27 1279.10 901.61 1220.33   A 1.91 1.87 40.7 0 0 901.50 1219.04   L 833.33 1068.60   A 0.99 0.98 73.2 0 0 832.28 1068.03   L 740.89 1082.21   A 4.78 4.78 0.0 0 1 737.68 1081.58   L 676.83 1044.79   A 1.30 1.30 0.0 0 0 675.46 1044.80   Q 657.43 1056.02 639.02 1069.00   Q 634.62 1072.11 629.55 1074.61   Q 624.59 1077.06 621.59 1079.22   Q 615.77 1083.41 614.03 1084.54   Q 613.85 1084.66 613.62 1085.18   A 0.30 0.30 0.0 0 1 613.05 1085.09   L 612.99 1084.53   Q 617.31 1061.81 622.39 1039.24   Q 627.09 1018.32 629.21 1008.14   Q 635.03 980.16 635.59 976.95   Q 637.01 968.90 643.07 942.79   Q 646.82 926.65 650.30 908.55   Q 650.72 906.39 652.82 905.16   Q 653.51 907.46 654.93 908.32   Q 662.22 912.71 670.61 918.39   Q 693.40 933.81 704.49 941.26   A 1.25 1.25 0.0 0 0 706.12 941.06   Q 739.57 904.07 768.45 871.43   C 770.07 869.60 770.86 868.11 771.14 865.82   Q 779.44 797.94 783.68 763.17   Q 783.70 763.02 784.17 760.41   Q 784.65 757.70 783.91 755.28   L 855.57 713.10   Q 859.91 735.85 862.57 758.49   Q 865.17 780.63 866.47 790.51   Q 891.70 981.36 894.17 999.92   C 894.83 1004.89 895.53 1012.57 896.43 1019.25   A 0.57 0.57 0.0 0 0 897.41 1019.55   Q 905.85 1010.10 917.68 996.95   C 919.49 994.94 920.46 990.49 921.21 988.09   Q 931.49 955.24 937.37 935.80   A 0.55 0.54 42.6 0 1 938.40 935.76   Q 951.80 969.26 967.53 1007.96   C 968.54 1010.45 969.99 1012.18 972.28 1013.95   Q 984.46 1023.35 1001.60 1036.27   A 0.46 0.46 0.0 0 0 1002.34 1035.95   C 1007.37 990.87 1018.96 893.56 1037.09 740.51   Q 1039.20 722.68 1041.38 705.63   C 1041.73 702.92 1042.62 700.96 1044.28 698.62   Q 1051.48 688.52 1060.64 677.14   Q 1061.36 676.24 1062.32 675.45   A 0.40 0.40 0.0 0 1 1062.96 675.68   L 1090.17 814.35   A 0.43 0.43 0.0 0 0 1090.87 814.60   L 1107.42 800.96   A 0.45 0.45 0.0 0 1 1108.15 801.25   L 1137.37 1043.85   A 0.62 0.61 8.3 0 0 1137.75 1044.35   Q 1138.05 1044.46 1138.75 1044.46   Z"/>
<path xmlns="http://www.w3.org/2000/svg" fill="#cad3da" d="M 365.83 763.29   L 366.84 729.91   Q 372.11 729.32 377.60 729.04   Q 386.33 728.59 388.40 728.45   Q 487.05 721.58 494.25 720.82   Q 494.98 720.74 495.10 720.81   A 0.43 0.43 0.0 0 1 495.03 721.60   L 365.83 763.29   Z"/>
<path xmlns="http://www.w3.org/2000/svg" fill="#2964a9" d="M 783.91 755.28   Q 784.65 757.70 784.17 760.41   Q 783.70 763.02 783.68 763.17   Q 779.44 797.94 771.14 865.82   C 770.86 868.11 770.07 869.60 768.45 871.43   Q 739.57 904.07 706.12 941.06   A 1.25 1.25 0.0 0 1 704.49 941.26   Q 693.40 933.81 670.61 918.39   Q 662.22 912.71 654.93 908.32   Q 653.51 907.46 652.82 905.16   L 742.74 843.73   A 1.04 1.03 -17.2 0 0 743.20 842.87   L 743.20 780.31   A 1.94 1.93 74.9 0 1 744.15 778.64   L 783.91 755.28   Z"/>
<path xmlns="http://www.w3.org/2000/svg" fill="#d3942b" d="M 1408.03 874.79   L 1407.90 1321.46   L 1348.91 1323.39   A 0.87 0.87 0.0 0 1 1348.05 1322.77   L 1325.26 1245.77   A 2.22 2.21 88.0 0 0 1323.61 1244.23   L 1242.73 1226.40   A 0.57 0.57 0.0 0 0 1242.04 1226.84   L 1219.03 1331.22   A 0.84 0.83 -85.3 0 1 1218.27 1331.87   L 1194.44 1333.55   A 0.66 0.66 0.0 0 1 1193.74 1332.91   Q 1193.52 1326.80 1193.39 1320.16   Q 1193.33 1316.75 1191.64 1314.02   Q 1182.16 1298.71 1171.22 1280.38   Q 1154.67 1252.66 1153.58 1250.90   C 1143.90 1235.22 1136.73 1222.41 1127.99 1209.01   Q 1126.68 1207.01 1120.55 1196.19   Q 1119.85 1194.95 1120.32 1192.39   Q 1120.66 1190.49 1120.77 1189.62   Q 1129.55 1117.02 1138.75 1044.46   L 1160.73 863.05   A 0.42 0.41 -49.9 0 1 1161.54 862.98   Q 1166.22 878.99 1166.29 879.24   C 1169.84 892.60 1174.36 905.05 1177.88 918.38   Q 1180.37 927.80 1184.69 941.26   Q 1189.41 955.97 1199.96 991.54   A 0.63 0.63 0.0 0 0 1201.16 991.56   L 1222.74 925.25   A 3.84 3.83 -5.0 0 1 1224.62 923.02   Q 1247.30 911.13 1269.13 897.68   A 0.84 0.82 -35.0 0 1 1270.20 897.86   L 1313.79 950.74   A 0.61 0.61 0.0 0 0 1314.83 950.57   L 1347.75 865.44   A 1.06 1.05 -74.8 0 1 1348.89 864.78   Q 1390.45 871.46 1405.28 873.81   C 1406.34 873.98 1406.94 874.63 1408.03 874.79   Z"/>
<path xmlns="http://www.w3.org/2000/svg" fill="#d3942b" d="M 790.46 1407.72   L 712.86 1407.73   Q 711.96 1405.71 711.74 1404.78   Q 693.45 1328.62 684.28 1289.32   C 682.01 1279.60 679.28 1269.42 677.13 1259.00   A 1.81 1.80 89.9 0 0 675.73 1257.59   L 580.28 1237.77   Q 589.49 1194.21 598.75 1150.81   C 602.04 1135.41 607.61 1106.51 612.99 1084.53   L 613.05 1085.09   A 0.30 0.30 0.0 0 0 613.62 1085.18   Q 613.85 1084.66 614.03 1084.54   Q 615.77 1083.41 621.59 1079.22   Q 624.59 1077.06 629.55 1074.61   Q 634.62 1072.11 639.02 1069.00   Q 657.43 1056.02 675.46 1044.80   A 1.30 1.30 0.0 0 1 676.83 1044.79   L 737.68 1081.58   A 4.78 4.78 0.0 0 0 740.89 1082.21   L 832.28 1068.03   A 0.99 0.98 73.2 0 1 833.33 1068.60   L 901.50 1219.04   A 1.91 1.87 40.7 0 1 901.61 1220.33   Q 886.27 1279.10 871.15 1338.64   Q 870.54 1341.02 868.48 1342.74   Q 826.54 1377.66 791.25 1406.75   Q 790.76 1407.15 790.46 1407.72   Z"/>
<path xmlns="http://www.w3.org/2000/svg" fill="#cad3da" d="M 120.18 1291.57   Q 119.58 1280.56 119.94 1270.00   Q 120.80 1244.63 121.25 1219.25   Q 122.17 1167.25 123.38 1114.91   Q 128.88 1119.37 132.74 1123.51   Q 139.76 1131.03 145.02 1135.98   Q 157.82 1148.01 170.53 1160.50   A 1.32 1.32 0.0 0 1 170.84 1161.93   L 123.82 1283.50   A 0.67 0.14 -78.0 0 1 123.78 1283.59   Q 121.75 1287.15 120.18 1291.57   Z"/>
<path xmlns="http://www.w3.org/2000/svg" fill="#668841" d="M 712.86 1407.73   L 545.18 1407.83   Q 545.40 1407.43 544.02 1407.25   L 580.28 1237.77   L 675.73 1257.59   A 1.81 1.80 89.9 0 1 677.13 1259.00   C 679.28 1269.42 682.01 1279.60 684.28 1289.32   Q 693.45 1328.62 711.74 1404.78   Q 711.96 1405.71 712.86 1407.73   Z"/>
<path xmlns="http://www.w3.org/2000/svg" fill="#cad3da" d="M 544.02 1407.25   Q 545.40 1407.43 545.18 1407.83   L 211.97 1407.88   A 0.32 0.31 -0.0 0 1 211.65 1407.57   L 211.65 1407.55   A 0.32 0.31 0.0 0 1 211.97 1407.24   L 544.02 1407.25   Z"/>
<rect xmlns="http://www.w3.org/2000/svg" fill="#cad3da" x="-19.69" y="-0.29" transform="translate(169.50,1407.57) rotate(-0.1)" width="39.38" height="0.58" rx="0.28"/>
</g></g></g></g></svg>